<?xml version="1.0" encoding="UTF-8" standalone="no"?>
<!-- Created with Inkscape (http://www.inkscape.org/) -->

<svg
   width="161mm"
   height="161mm"
   viewBox="0 0 161 161"
   version="1.1"
   id="svg1"
   inkscape:version="1.4.2 (ebf0e940d0, 2025-05-08)"
   sodipodi:docname="vn.ququ.SocialCodingReport.svg"
   xmlns:inkscape="http://www.inkscape.org/namespaces/inkscape"
   xmlns:sodipodi="http://sodipodi.sourceforge.net/DTD/sodipodi-0.dtd"
   xmlns="http://www.w3.org/2000/svg"
   xmlns:svg="http://www.w3.org/2000/svg">
  <sodipodi:namedview
     id="namedview1"
     pagecolor="#ffffff"
     bordercolor="#666666"
     borderopacity="1.0"
     inkscape:showpageshadow="2"
     inkscape:pageopacity="0.0"
     inkscape:pagecheckerboard="0"
     inkscape:deskcolor="#d1d1d1"
     inkscape:document-units="mm"
     inkscape:zoom="0.43740881"
     inkscape:cx="156.60407"
     inkscape:cy="341.78553"
     inkscape:window-width="1300"
     inkscape:window-height="699"
     inkscape:window-x="0"
     inkscape:window-y="0"
     inkscape:window-maximized="1"
     inkscape:current-layer="layer2" />
  <defs
     id="defs1" />
  <g
     inkscape:groupmode="layer"
     id="layer2"
     inkscape:label="Frame"
     transform="translate(-29.51548,-23.695518)">
    <rect
       style="fill:none;stroke:none;stroke-width:1"
       id="rect1"
       width="160"
       height="160"
       x="30.01548"
       y="24.195518" />
  </g>
  <g
     inkscape:label="Layer 1"
     inkscape:groupmode="layer"
     id="layer1"
     transform="translate(-29.51548,-23.695518)">
    <path
       id="path7"
       d="m 52.987803,87.162326 v 0 c -0.10583,1.552222 -0.45155,3.541889 -2.18016,4.060472 -1.22414,0.148167 -2.97392,0.381 -3.60539,-0.980722 -0.94192,-1.862667 -1.4605,-4.240389 -0.33161,-6.141861 1.67569,1.626305 3.85586,2.592916 6.11716,3.062111 z m -9.7155,-9.334501 c 0.26106,1.322917 -0.10936,2.931584 -1.31233,3.683001 -1.17122,-1.788584 -1.05833,-3.989917 -1.75331,-5.933723 1.03364,0.73025 2.15548,1.361722 3.06564,2.250722 z m 33.06234,-11.52525 c 0.91722,0.282222 1.74625,0.892527 2.22603,1.732139 1.27352,2.218972 -0.15523,5.577417 -2.79753,5.845528 -2.58234,0.437444 -5.06236,-2.289528 -4.318,-4.815417 0.45861,-2.106084 2.8575,-3.411362 4.8895,-2.76225 z m 90.815587,34.484035 c -3.50309,0.0141 -7.10142,1.80269 -10.32228,5.5245 -1.67217,-4.56495 -4.13103,-8.875892 -7.493,-12.682367 3.00214,-4.367389 6.7945,-6.600473 10.91847,-6.780389 3.11856,4.420306 5.37633,9.11225 6.89681,13.938256 z m 1.95791,24.84966 c -3.0233,-0.54327 -6.36764,0.4057 -9.72608,2.96334 0.64206,-6.27945 0.23989,-12.79172 -1.48519,-18.96534 3.33022,-3.50308 6.79802,-5.35516 10.14236,-5.65855 1.76389,7.1508 1.99319,14.52033 1.06891,21.66055 z M 147.69453,74.165992 c 5.2952,2.836333 9.64142,6.282972 13.14803,10.156473 3.28083,0.624416 6.64986,2.642305 9.75431,6.0325 -2.51178,-1.767417 -5.03414,-2.875139 -7.48242,-3.309056 3.37961,4.385028 5.79261,9.221609 7.36953,14.273391 3.37255,1.11125 6.49111,3.92995 8.89705,8.31497 -2.413,-2.99508 -5.17525,-4.84011 -8.1033,-5.46452 1.82739,7.37305 1.9685,15.113 0.79375,22.53544 2.79752,1.55575 5.16114,4.58964 6.77686,8.97114 -2.032,-3.25967 -4.49086,-5.43983 -7.23195,-6.44525 -2.52941,12.6365 -8.83708,24.10531 -17.05328,30.93156 6.63928,-8.17386 11.98034,-19.43806 14.09701,-31.55245 -3.06564,-0.18697 -6.37823,0.95956 -9.75431,3.54189 -1.31939,7.89517 -4.26508,15.23295 -8.26911,20.81742 2.41653,-5.7397 4.24744,-11.86392 5.23875,-18.11867 -3.34434,3.39725 -6.70278,8.20914 -9.89895,14.54856 3.0727,-8.14211 6.6675,-14.08995 10.35756,-18.01989 0.6738,-6.28298 0.46567,-12.65061 -0.87489,-18.84539 -2.64936,3.53483 -5.16819,8.18797 -7.41539,14.02644 1.57339,-7.42244 3.88761,-13.15508 6.59342,-17.3108 -1.37231,-4.79425 -3.46428,-9.457982 -6.39939,-13.864174 -2.43064,4.265082 -4.21922,10.149424 -5.05883,17.705924 -0.0741,-8.52664 1.27705,-15.141232 3.51719,-19.882563 -1.84503,-2.480028 -3.97581,-4.868333 -6.4135,-7.14375 2.71639,1.665111 5.11175,3.548945 7.20725,5.612695 2.75519,-4.882445 6.57225,-7.38364 10.70328,-7.556501 -2.87514,-3.548944 -6.35,-6.893278 -10.49867,-9.955389 z M 66.883723,37.110212 c -3.24908,1.813278 -5.5245,4.967111 -6.95325,8.343195 6.06072,1.516944 11.66636,4.363861 17.1697,7.239 3.33375,1.739195 6.39586,3.919361 9.44386,6.106584 -6.25828,-2.843389 -24.02064,-10.375195 -31.496,-12.883445 -3.40784,-1.019528 -7.09789,-1.915584 -10.62567,-0.984251 -1.95439,0.472723 -3.68653,2.24014 -3.59481,4.33564 0.36336,2.226028 2.0955,3.894667 3.87703,5.11175 2.42006,1.562806 5.06236,2.794 7.83167,3.577167 -3.73239,1.816806 -7.3907,3.838222 -10.7315,6.31825 -2.04964,1.488723 -3.90173,3.429 -4.74839,5.866695 -1.76742,4.900084 -1.72509,11.063112 2.03553,15.049501 0.70908,0.85725 1.89794,1.432278 2.10255,2.621139 0.57503,2.977445 2.15195,5.676195 4.191,7.898695 3.98639,4.811888 9.62731,8.166808 15.66686,9.666118 -6.34647,20.91972 -3.09033,41.39494 11.22892,58.04958 -9.65553,-1.02305 -16.13958,2.01436 -16.46767,9.80723 9.05934,0 18.1222,0.004 27.18153,0.004 1.00895,-1.96144 2.01789,-3.91936 3.02331,-5.8808 -12.80584,-6.40292 -19.86492,-22.72595 -21.66761,-36.21617 -1.04775,-8.35378 -0.35984,-16.94745 2.33891,-24.94139 5.21053,0.0106 10.77384,-1.62278 14.14992,-5.80672 -8.69597,3.28788 -21.04672,3.28788 -27.5202,-4.603757 4.09928,-1.979083 4.42384,-3.129139 4.88245,-7.8105 2.75519,-0.313973 5.85258,-0.575028 7.90575,-2.663473 0.73378,-0.642055 0.56444,-1.897944 -0.24695,-2.391833 -1.27,-0.853723 -2.74813,0.09525 -4.09927,0.208139 -3.10798,0.335139 -6.3747,0.465666 -9.33803,-0.6985 -2.413,-0.829028 -4.75545,-2.501195 -5.55625,-5.027084 1.28058,-1.287639 3.18205,-1.915583 4.09222,-3.570111 3.40783,-4.68489 -7.16844,-4.967112 -10.90436,-3.778251 2.89278,-3.71475 11.59581,-3.436055 14.22753,-1.199444 4.08516,-3.196167 9.24278,-4.487334 14.21341,-5.598584 5.02709,-1.17475 21.09965,-1.710972 24.01006,4.674306 2.05317,-2.017889 5.39397,-2.293056 7.849307,-0.874889 1.17122,0.691445 1.99672,1.993195 1.99319,3.372556 -0.21166,1.986139 -1.40405,3.813528 -3.100907,4.868334 -2.53648,1.770944 -5.94784,1.135944 -8.51959,2.832805 6.23359,2.659945 10.537467,6.071306 12.932837,12.759973 -3.59128,-2.532944 -7.094367,-3.496028 -13.282087,-2.779889 11.627557,13.962952 -3.89114,26.631202 -13.06336,36.900562 -6.93914,6.93914 -2.70581,17.83292 8.17033,12.17083 11.72634,-6.61105 21.187837,-17.78353 39.373527,-14.50975 -28.853687,-1.02658 -38.396327,28.16931 -23.03991,41.9347 -8.015117,1.06539 -13.112747,2.23661 -13.504337,8.62894 3.39372,0 39.973247,0.007 39.976777,0.004 30.95625,-0.77258 55.81298,-26.10908 55.81298,-57.24878 0,-15.22589 -5.94078,-29.061837 -15.62806,-39.320616 -23.1775,-24.535696 -53.12481,-2.536472 -34.50872,24.045336 6.50875,9.29217 10.32933,20.60575 10.32933,32.81186 0,7.57414 -1.47108,14.79903 -4.14161,21.41362 1.90853,-6.87211 2.56117,-14.21695 1.70744,-21.7417 -3.7465,-23.34331 -17.22261,-44.118393 -36.16678,-57.001838 1.07245,-1.735667 2.07434,-3.633611 2.02142,-5.739695 0.0635,-3.086806 -1.97203,-5.817306 -4.55789,-7.316611 0.56797,-4.459112 0.56092,-9.253362 -1.651,-13.303251 -1.33703,-2.765778 -3.563047,-4.97064 -5.958417,-6.84389 1.57692,-5.570361 -6.56166,-7.535333 -8.18797,-4.967111 -6.19478,-2.783417 -14.23811,-4.34975 -20.47875,-0.917222 v 0"
       style="fill:#784421;fill-opacity:1;fill-rule:evenodd;stroke:#000000;stroke-width:1;stroke-opacity:1;stroke-dasharray:none" />
  </g>
</svg>
